<mxfile host="65bd71144e">
    <diagram id="zBezGCgUezK5kuCKd0u8" name="Page-1">
        <mxGraphModel dx="1512" dy="513" grid="1" gridSize="10" guides="1" tooltips="1" connect="1" arrows="1" fold="1" page="1" pageScale="1" pageWidth="850" pageHeight="1100" math="0" shadow="0">
            <root>
                <mxCell id="0"/>
                <mxCell id="1" parent="0"/>
                <mxCell id="2" value="inicio" style="ellipse;whiteSpace=wrap;html=1;" vertex="1" parent="1">
                    <mxGeometry x="280" y="220" width="120" height="80" as="geometry"/>
                </mxCell>
                <mxCell id="3" style="edgeStyle=none;html=1;entryX=0.5;entryY=0;entryDx=0;entryDy=0;" edge="1" parent="1" source="4" target="5">
                    <mxGeometry relative="1" as="geometry"/>
                </mxCell>
                <mxCell id="4" value="int edad&lt;div&gt;&lt;font color=&quot;#000000&quot;&gt;int puls&lt;br&gt;&lt;/font&gt;&lt;div&gt;string sexo&lt;/div&gt;&lt;/div&gt;" style="rounded=0;whiteSpace=wrap;html=1;" vertex="1" parent="1">
                    <mxGeometry x="280" y="320" width="120" height="60" as="geometry"/>
                </mxCell>
                <mxCell id="16" style="edgeStyle=none;html=1;entryX=0.5;entryY=0;entryDx=0;entryDy=0;" edge="1" parent="1" source="5" target="7">
                    <mxGeometry relative="1" as="geometry"/>
                </mxCell>
                <mxCell id="5" value="edad, sexo&lt;div&gt;&lt;br&gt;&lt;/div&gt;" style="shape=parallelogram;perimeter=parallelogramPerimeter;whiteSpace=wrap;html=1;fixedSize=1;" vertex="1" parent="1">
                    <mxGeometry x="280" y="420" width="120" height="60" as="geometry"/>
                </mxCell>
                <mxCell id="6" style="edgeStyle=none;html=1;entryX=0.45;entryY=-0.033;entryDx=0;entryDy=0;entryPerimeter=0;" edge="1" parent="1" source="2" target="4">
                    <mxGeometry relative="1" as="geometry"/>
                </mxCell>
                <mxCell id="8" style="edgeStyle=none;html=1;entryX=0.5;entryY=0;entryDx=0;entryDy=0;" edge="1" parent="1" source="7" target="9">
                    <mxGeometry relative="1" as="geometry">
                        <mxPoint x="560" y="570" as="targetPoint"/>
                        <Array as="points">
                            <mxPoint x="560" y="575"/>
                        </Array>
                    </mxGeometry>
                </mxCell>
                <mxCell id="12" style="edgeStyle=none;html=1;entryX=0.5;entryY=0;entryDx=0;entryDy=0;" edge="1" parent="1" source="7" target="11">
                    <mxGeometry relative="1" as="geometry">
                        <mxPoint x="130" y="575" as="targetPoint"/>
                        <Array as="points">
                            <mxPoint x="150" y="575"/>
                        </Array>
                    </mxGeometry>
                </mxCell>
                <mxCell id="7" value="sexo == &#39;h&#39;" style="rhombus;whiteSpace=wrap;" vertex="1" parent="1">
                    <mxGeometry x="265" y="510" width="150" height="130" as="geometry"/>
                </mxCell>
                <mxCell id="19" style="edgeStyle=none;html=1;entryX=0.5;entryY=0;entryDx=0;entryDy=0;" edge="1" parent="1" source="9" target="21">
                    <mxGeometry relative="1" as="geometry">
                        <mxPoint x="560" y="890" as="targetPoint"/>
                        <Array as="points">
                            <mxPoint x="590" y="930"/>
                        </Array>
                    </mxGeometry>
                </mxCell>
                <mxCell id="9" value="puls = 220" style="rounded=0;whiteSpace=wrap;" vertex="1" parent="1">
                    <mxGeometry x="500" y="600" width="120" height="60" as="geometry"/>
                </mxCell>
                <mxCell id="18" style="edgeStyle=none;html=1;entryX=0.5;entryY=0;entryDx=0;entryDy=0;" edge="1" parent="1" source="10" target="21">
                    <mxGeometry relative="1" as="geometry">
                        <mxPoint x="300" y="890" as="targetPoint"/>
                        <Array as="points">
                            <mxPoint x="300" y="930"/>
                        </Array>
                    </mxGeometry>
                </mxCell>
                <mxCell id="10" value="puls = 210" style="rounded=0;whiteSpace=wrap;" vertex="1" parent="1">
                    <mxGeometry x="240" y="760" width="120" height="60" as="geometry"/>
                </mxCell>
                <mxCell id="13" style="edgeStyle=none;html=1;entryX=0.45;entryY=-0.037;entryDx=0;entryDy=0;entryPerimeter=0;" edge="1" parent="1" source="11" target="14">
                    <mxGeometry relative="1" as="geometry">
                        <mxPoint x="-10" y="685" as="targetPoint"/>
                        <Array as="points">
                            <mxPoint x="-30" y="680"/>
                        </Array>
                    </mxGeometry>
                </mxCell>
                <mxCell id="17" style="edgeStyle=none;html=1;entryX=0.5;entryY=0;entryDx=0;entryDy=0;" edge="1" parent="1" source="11" target="10">
                    <mxGeometry relative="1" as="geometry">
                        <Array as="points">
                            <mxPoint x="300" y="680"/>
                        </Array>
                    </mxGeometry>
                </mxCell>
                <mxCell id="11" value="sexo == &#39;m&quot;" style="rhombus;whiteSpace=wrap;" vertex="1" parent="1">
                    <mxGeometry x="80" y="620" width="150" height="130" as="geometry"/>
                </mxCell>
                <mxCell id="23" style="edgeStyle=none;html=1;entryX=0;entryY=0.5;entryDx=0;entryDy=0;" edge="1" parent="1" source="14" target="21">
                    <mxGeometry relative="1" as="geometry">
                        <mxPoint x="-20" y="970" as="targetPoint"/>
                        <Array as="points">
                            <mxPoint x="-50" y="960"/>
                        </Array>
                    </mxGeometry>
                </mxCell>
                <mxCell id="14" value="(&quot;Ingrese un sexo valido H o M&quot;" style="shape=document;whiteSpace=wrap;boundedLbl=1;" vertex="1" parent="1">
                    <mxGeometry x="-90" y="780" width="120" height="80" as="geometry"/>
                </mxCell>
                <mxCell id="15" value="" style="endArrow=classic;html=1;" edge="1" parent="1">
                    <mxGeometry width="50" height="50" relative="1" as="geometry">
                        <mxPoint x="-90" y="970" as="sourcePoint"/>
                        <mxPoint x="-40" y="920" as="targetPoint"/>
                    </mxGeometry>
                </mxCell>
                <mxCell id="24" style="edgeStyle=none;html=1;" edge="1" parent="1" source="21">
                    <mxGeometry relative="1" as="geometry">
                        <mxPoint x="430" y="1040" as="targetPoint"/>
                    </mxGeometry>
                </mxCell>
                <mxCell id="21" value="tp= (puls - Edad) / 10" style="rounded=0;whiteSpace=wrap;" vertex="1" parent="1">
                    <mxGeometry x="370" y="930" width="120" height="60" as="geometry"/>
                </mxCell>
                <mxCell id="26" style="edgeStyle=none;html=1;" edge="1" parent="1" source="25">
                    <mxGeometry relative="1" as="geometry">
                        <mxPoint x="440" y="1240" as="targetPoint"/>
                    </mxGeometry>
                </mxCell>
                <mxCell id="25" value="&quot;Su total de pulsaciones por cada 10 segundos es: &quot;,tp" style="shape=document;whiteSpace=wrap;boundedLbl=1;" vertex="1" parent="1">
                    <mxGeometry x="330" y="1050" width="220" height="110" as="geometry"/>
                </mxCell>
                <mxCell id="27" value="" style="ellipse;whiteSpace=wrap;html=1;" vertex="1" parent="1">
                    <mxGeometry x="380" y="1250" width="120" height="80" as="geometry"/>
                </mxCell>
            </root>
        </mxGraphModel>
    </diagram>
</mxfile>